<?xml version="1.0" standalone="no"?>
<!DOCTYPE svg PUBLIC "-//W3C//DTD SVG 20010904//EN"
 "http://www.w3.org/TR/2001/REC-SVG-20010904/DTD/svg10.dtd">
<svg version="1.0" xmlns="http://www.w3.org/2000/svg"
 width="64.000000pt" height="64.000000pt" viewBox="0 0 64.000000 64.000000"
 preserveAspectRatio="xMidYMid meet">

<g transform="translate(0.000000,64.000000) scale(0.100000,-0.100000)"
fill="#000000" stroke="none">
<path d="M247 630 c-92 -24 -179 -97 -219 -185 -31 -70 -31 -180 0 -250 30
-65 102 -138 166 -166 71 -32 182 -32 251 -1 65 30 138 102 166 166 31 70 32
182 2 248 -30 66 -104 142 -163 167 -58 25 -149 34 -203 21z m139 -168 c12 -9
27 -27 33 -39 15 -30 14 -194 -2 -213 -38 -49 -111 -65 -155 -34 -35 24 -12
45 42 38 63 -9 76 9 76 106 0 88 -12 110 -60 110 -36 0 -60 -24 -60 -60 0 -38
24 -60 66 -60 30 0 34 -3 34 -25 0 -22 -4 -25 -35 -25 -73 0 -115 43 -115 117
0 39 20 72 55 91 31 17 97 14 121 -6z"/>
</g>
</svg>
