<?xml version="1.0" standalone="no"?>
<!DOCTYPE svg PUBLIC "-//W3C//DTD SVG 20010904//EN"
 "http://www.w3.org/TR/2001/REC-SVG-20010904/DTD/svg10.dtd">
<svg version="1.0" xmlns="http://www.w3.org/2000/svg"
 width="64.000000pt" height="64.000000pt" viewBox="0 0 64.000000 64.000000"
 preserveAspectRatio="xMidYMid meet">

<g transform="translate(0.000000,64.000000) scale(0.100000,-0.100000)"
fill="#000000" stroke="none">
<path d="M81 622 c-19 -9 -44 -30 -55 -45 -20 -27 -21 -42 -21 -257 0 -215 1
-230 21 -257 42 -57 68 -63 294 -63 226 0 252 6 294 63 20 27 21 42 21 257 0
215 -1 230 -21 257 -42 57 -68 63 -294 63 -175 0 -210 -3 -239 -18z m101 -179
l3 -78 46 -3 45 -3 36 81 37 80 40 0 c39 0 40 -1 31 -25 -17 -45 -42 -90 -63
-112 l-20 -23 35 0 c60 0 73 -25 73 -139 l0 -96 -35 0 -35 0 -5 92 c-4 79 -7
91 -20 83 -8 -5 -50 -10 -92 -10 l-78 0 0 -85 0 -85 -35 0 -35 0 0 200 0 200
35 0 34 0 3 -77z"/>
</g>
</svg>
